<?xml version="1.0" encoding="UTF-8" standalone="no"?>
<!-- Created with Inkscape (http://www.inkscape.org/) -->

<svg
   xmlns:dc="http://purl.org/dc/elements/1.1/"
   xmlns:cc="http://creativecommons.org/ns#"
   xmlns:rdf="http://www.w3.org/1999/02/22-rdf-syntax-ns#"
   xmlns:svg="http://www.w3.org/2000/svg"
   xmlns="http://www.w3.org/2000/svg"
   xmlns:sodipodi="http://sodipodi.sourceforge.net/DTD/sodipodi-0.dtd"
   xmlns:inkscape="http://www.inkscape.org/namespaces/inkscape"
   id="svg4237"
   version="1.1"
   inkscape:version="0.91 r13725"
   xml:space="preserve"
   width="1728.8815"
   height="775.18231"
   viewBox="0 0 1728.8814 775.18228"
   sodipodi:docname="Logo-region_aura.svg"
   inkscape:export-filename="/home/fcloitre/Cloud/Cloud_vps/Documents/foret_ddraf/img/Logo-region_aura.png"
   inkscape:export-xdpi="5.8303585"
   inkscape:export-ydpi="5.8303585"><metadata
     id="metadata4243"><rdf:RDF><cc:Work
         rdf:about=""><dc:format>image/svg+xml</dc:format><dc:type
           rdf:resource="http://purl.org/dc/dcmitype/StillImage" /><dc:title></dc:title></cc:Work></rdf:RDF></metadata><defs
     id="defs4241" /><sodipodi:namedview
     pagecolor="#ffffff"
     bordercolor="#666666"
     borderopacity="1"
     objecttolerance="10"
     gridtolerance="10"
     guidetolerance="10"
     inkscape:pageopacity="0"
     inkscape:pageshadow="2"
     inkscape:window-width="956"
     inkscape:window-height="1009"
     id="namedview4239"
     showgrid="false"
     fit-margin-top="0"
     fit-margin-left="0"
     fit-margin-right="0"
     fit-margin-bottom="0"
     inkscape:zoom="0.15756749"
     inkscape:cx="107.68462"
     inkscape:cy="386.201"
     inkscape:window-x="960"
     inkscape:window-y="44"
     inkscape:window-maximized="0"
     inkscape:current-layer="g4245" /><g
     id="g4245"
     inkscape:groupmode="layer"
     inkscape:label="ink_ext_XXXXXX"
     transform="matrix(1.25,0,0,-1.25,-206.46648,990.22506)"><g
       id="g4345"
       inkscape:export-xdpi="5.8303585"
       inkscape:export-ydpi="5.8303585"><path
         d="m 171.58708,495.60616 30.94357,0 0,-112.31351 55.58441,0 0,-24.25812 -86.52798,0 0,136.57163"
         style="fill:#2c3546;fill-opacity:1;fill-rule:nonzero;stroke:none"
         id="path4249"
         inkscape:connector-curvature="0" /><path
         d="m 336.67834,393.98795 0,8.40596 -10.69647,0 c -16.04412,0 -25.40397,-3.43987 -25.40397,-14.13517 0,-7.25777 4.39376,-12.03425 14.51789,-12.03425 12.22387,0 21.58255,6.68661 21.58255,17.76346 z m -63.22375,-7.25777 c 0,23.30306 21.39293,32.09057 51.95494,32.09057 l 11.26881,0 0,4.01103 c 0,11.84231 -3.62948,18.33697 -16.2349,18.33697 -10.88842,0 -15.85451,-5.54077 -17.00035,-14.13516 l -26.16825,0 c 1.71935,23.68462 20.43787,34.19031 44.88795,34.19031 24.4489,0 41.83081,-9.93219 41.83081,-37.0555 l 0,-65.13387 -26.93254,0 0,12.03309 c -5.73037,-8.02206 -14.51672,-14.13517 -30.18045,-14.13517 -18.14619,0 -33.42602,8.78635 -33.42602,29.79773"
         style="fill:#2c3546;fill-opacity:1;fill-rule:nonzero;stroke:none"
         id="path4251"
         inkscape:connector-curvature="0" /><path
         d="m 477.26216,432.76397 c 15.47061,0 23.30307,6.49466 23.30307,19.67359 l 0,0.76428 c 0,13.94438 -8.40596,18.71853 -23.30307,18.71853 l -17.38307,0 0,-39.1564 17.38307,0 z m -48.13586,62.84219 48.89781,0 c 32.28135,0 52.71922,-13.17893 52.71922,-41.44926 l 0,-0.76428 c 0,-20.62865 -12.03308,-31.5159 -28.0772,-36.29239 l 36.1016,-58.0657 -32.85486,0 -32.66291,52.71806 -13.37087,0 0,-52.71806 -30.75279,0 0,136.57163"
         style="fill:#2c3546;fill-opacity:1;fill-rule:nonzero;stroke:none"
         id="path4253"
         inkscape:connector-curvature="0" /><path
         d="m 598.91796,502.8651 29.03344,0 -19.86554,-30.37123 -20.05632,0 10.88842,30.37123 z m 22.53995,-83.08929 c -0.95507,15.08906 -8.59674,22.348 -21.77567,22.348 -12.41581,0 -20.81943,-8.214 -22.9215,-22.348 l 44.69717,0 z m -73.15828,-12.03425 0,1.52739 c 0,31.51707 22.348,51.95495 51.38261,51.95495 25.78553,0 48.70703,-15.08906 48.70703,-50.80793 l 0,-7.64051 -72.01009,0 c 0.76429,-16.61879 9.74141,-26.16942 24.83046,-26.16942 12.79854,0 19.10126,5.54077 20.8206,13.94439 l 26.16825,0 c -3.24674,-21.58372 -20.43787,-33.61798 -47.75196,-33.61798 -30.17928,0 -52.1469,18.91048 -52.1469,50.80911"
         style="fill:#2c3546;fill-opacity:1;fill-rule:nonzero;stroke:none"
         id="path4255"
         inkscape:connector-curvature="0" /><path
         d="m 740.78223,411.56181 0,1.33662 c 0,17.00035 -8.9783,27.31526 -24.06852,27.31526 -15.47061,0 -24.06735,-11.0792 -24.06735,-27.50604 l 0,-1.52857 c 0,-16.61762 9.74258,-26.93136 23.49501,-26.93136 14.51672,0 24.64086,10.31374 24.64086,27.31409 z m -75.64074,-54.62936 27.50487,0 c 1.71935,-8.78634 8.02323,-14.51555 22.15839,-14.51555 16.80841,0 25.21319,8.78518 25.21319,24.44891 l 0,15.09022 c -5.54077,-9.74257 -17.38191,-18.52892 -32.09057,-18.52892 -24.25813,0 -43.55016,18.1462 -43.55016,47.75197 l 0,1.33779 c 0,28.65188 19.10125,48.70703 43.93171,48.70703 16.23724,0 25.97865,-7.067 31.70902,-17.18996 l 0,14.89828 27.50487,0 0,-92.06641 c -0.19078,-29.60695 -19.86437,-44.69717 -52.71806,-44.69717 -32.28135,0 -46.98885,14.13516 -49.66326,34.76381"
         style="fill:#2c3546;fill-opacity:1;fill-rule:nonzero;stroke:none"
         id="path4257"
         inkscape:connector-curvature="0" /><path
         d="m 794.72337,458.93222 27.50487,0 0,-99.89769 -27.50487,0 0,99.89769 z m -2.10207,28.65188 c 0,8.59556 6.87622,15.09022 15.66373,15.09022 8.97712,0 15.85334,-6.49466 15.85334,-15.09022 0,-8.59557 -6.87622,-15.09023 -15.85334,-15.09023 -8.78751,0 -15.66373,6.49466 -15.66373,15.09023"
         style="fill:#2c3546;fill-opacity:1;fill-rule:nonzero;stroke:none"
         id="path4259"
         inkscape:connector-curvature="0" /><path
         d="m 920.36796,408.31506 0,1.33662 c 0,19.10126 -8.97595,30.56201 -24.4489,30.56201 -15.28101,0 -24.44891,-11.0792 -24.44891,-30.18045 l 0,-1.5274 c 0,-19.10125 8.78635,-30.56201 24.44891,-30.56201 15.47295,0 24.4489,11.46076 24.4489,30.37123 z m -77.16813,-0.38273 0,1.52857 c 0,31.32512 22.73073,51.763 52.71923,51.763 29.9885,0 52.52728,-20.05515 52.52728,-51.19066 l 0,-1.5274 c 0,-31.5159 -22.72956,-51.57339 -52.71806,-51.57339 -29.79772,0 -52.52845,19.86554 -52.52845,50.99988"
         style="fill:#2c3546;fill-opacity:1;fill-rule:nonzero;stroke:none"
         id="path4261"
         inkscape:connector-curvature="0" /><path
         d="m 969.49868,458.93222 27.69565,0 0,-15.85334 c 4.96957,9.93218 15.85917,18.14502 32.46977,18.14502 19.6795,0 33.6203,-11.84231 33.6203,-38.5829 l 0,-63.60647 -27.7015,0 0,59.59427 c 0,13.56166 -5.3394,20.05632 -17.5691,20.05632 -11.84,0 -20.81947,-7.25894 -20.81947,-21.96527 l 0,-57.68532 -27.69565,0 0,99.89769"
         style="fill:#2c3546;fill-opacity:1;fill-rule:nonzero;stroke:none"
         id="path4263"
         inkscape:connector-curvature="0" /><path
         d="m 188.85897,235.10461 33.56531,0 -16.78266,49.80722 -16.78265,-49.80722 z m 9.60915,59.55214 15.42848,0 32.7542,-96.77267 -11.63983,0 -9.47455,27.88175 -39.92653,0 -9.33879,-27.88175 -11.09792,0 33.29494,96.77267"
         style="fill:#2c3546;fill-opacity:1;fill-rule:nonzero;stroke:none"
         id="path4265"
         inkscape:connector-curvature="0" /><path
         d="m 255.24519,223.87092 0,44.80016 11.23252,0 0,-44.25826 c 0,-12.4521 5.27977,-18.00106 16.37769,-18.00106 10.01529,0 19.48984,6.6316 19.48984,19.35407 l 0,42.90525 11.23252,0 0,-70.787 -11.23252,0 0,11.23486 c -3.24909,-6.6316 -11.0991,-12.4521 -22.46856,-12.4521 -14.0743,0 -24.63149,7.71541 -24.63149,27.20408"
         style="fill:#2c3546;fill-opacity:1;fill-rule:nonzero;stroke:none"
         id="path4267"
         inkscape:connector-curvature="0" /><path
         d="m 324.09398,268.67108 12.18173,0 20.97744,-59.41754 20.70824,59.41754 11.63866,0 -25.44376,-70.787 -14.34701,0 -25.7153,70.787"
         style="fill:#2c3546;fill-opacity:1;fill-rule:nonzero;stroke:none"
         id="path4269"
         inkscape:connector-curvature="0" /><path
         d="m 446.36425,240.11283 c -1.08264,14.61738 -8.66111,20.43788 -20.30211,20.43788 -11.50406,0 -19.2183,-7.85118 -21.11321,-20.43788 l 41.41532,0 z m -53.46245,-7.57847 0,1.08147 c 0,21.38475 13.67051,36.27249 33.16034,36.27249 16.37769,0 31.80616,-9.87952 31.80616,-35.18985 l 0,-3.65288 -53.3255,0 c 0.54073,-16.10615 8.25614,-25.03997 22.73775,-25.03997 10.96332,0 17.32455,4.06019 18.81333,12.31633 l 11.23369,0 c -2.43564,-14.21124 -14.21124,-21.65511 -30.18162,-21.65511 -20.03174,0 -34.24415,14.07547 -34.24415,35.86752"
         style="fill:#2c3546;fill-opacity:1;fill-rule:nonzero;stroke:none"
         id="path4271"
         inkscape:connector-curvature="0" /><path
         d="m 471.74012,268.67108 11.23486,0 0,-12.72363 c 4.46516,7.98694 10.55719,13.5359 23.27849,13.94087 l 0,-10.55602 c -14.21124,-0.67767 -23.27849,-5.14283 -23.27849,-22.60315 l 0,-38.84507 -11.23486,0 0,70.787"
         style="fill:#2c3546;fill-opacity:1;fill-rule:nonzero;stroke:none"
         id="path4273"
         inkscape:connector-curvature="0" /><path
         d="m 567.68647,234.56387 0,0.94687 c 0,15.83461 -8.66228,25.03997 -22.46738,25.03997 -14.07664,0 -22.46855,-10.42259 -22.46855,-25.30916 l 0,-1.08381 c 0,-15.42965 9.88068,-24.63266 21.79205,-24.63266 13.12743,0 23.14388,9.20301 23.14388,25.03879 z m -55.08582,-40.73881 11.50289,0 c 1.62572,-8.12154 8.39191,-12.3175 20.43905,-12.3175 13.9397,0 22.73775,6.63277 22.73775,21.79088 l 0,10.28682 c -4.06019,-6.90313 -13.67051,-13.39896 -23.95616,-13.39896 -18.54296,0 -32.21347,14.07547 -32.21347,33.5653 l 0,0.94687 c 0,19.21947 13.53474,35.18985 33.02574,35.18985 11.77443,0 19.0837,-5.68473 23.14389,-12.58553 l 0,11.36829 11.23369,0 0,-66.04914 c -0.13577,-20.57247 -14.07664,-30.58776 -33.83685,-30.58776 -20.9786,0 -30.18279,9.87952 -32.07653,21.79088"
         style="fill:#2c3546;fill-opacity:1;fill-rule:nonzero;stroke:none"
         id="path4275"
         inkscape:connector-curvature="0" /><path
         d="m 596.55488,268.67108 11.23369,0 0,-11.23369 c 3.24792,6.6316 11.0991,12.45093 22.73775,12.45093 14.61738,0 24.9042,-7.98461 24.9042,-28.55708 l 0,-43.44716 -11.23369,0 0,44.25943 c 0,12.4521 -5.27977,18.00106 -16.64689,18.00106 -10.42259,0 -19.76137,-6.63277 -19.76137,-19.35406 l 0,-42.90643 -11.23369,0 0,70.787"
         style="fill:#2c3546;fill-opacity:1;fill-rule:nonzero;stroke:none"
         id="path4277"
         inkscape:connector-curvature="0" /><path
         d="m 722.10115,240.11283 c -1.08381,14.61738 -8.66345,20.43788 -20.30327,20.43788 -11.50406,0 -19.2183,-7.85118 -21.11321,-20.43788 l 41.41648,0 z m -53.46244,-7.57847 0,1.08147 c 0,21.38475 13.6705,36.27249 33.15917,36.27249 16.37651,0 31.80616,-9.87952 31.80616,-35.18985 l 0,-3.65288 -53.32551,0 c 0.54074,-16.10615 8.25615,-25.03997 22.73775,-25.03997 10.96216,0 17.32456,4.06019 18.81334,12.31633 l 11.23369,0 c -2.43682,-14.21124 -14.21241,-21.65511 -30.18279,-21.65511 -20.03057,0 -34.24181,14.07547 -34.24181,35.86752"
         style="fill:#2c3546;fill-opacity:1;fill-rule:nonzero;stroke:none"
         id="path4279"
         inkscape:connector-curvature="0" /><path
         d="m 747.09664,229.82601 28.9638,0 0,10.55847 -28.9638,0 0,-10.55847 z"
         style="fill:#2c3546;fill-opacity:1;fill-rule:nonzero;stroke:none"
         id="path4281"
         inkscape:connector-curvature="0" /><path
         d="m 825.23154,249.31585 c 13.8051,0 21.25015,5.95626 21.25015,17.86646 l 0,0.54073 c 0,13.1286 -8.12155,17.46033 -21.25015,17.46033 l -18.13566,0 0,-35.86752 18.13566,0 z m -29.91008,45.3409 29.09898,0 c 18.54179,0 33.83567,-7.57847 33.83567,-26.93371 l 0,-0.54073 c 0,-15.97155 -10.69179,-23.82156 -23.95616,-26.3918 l 29.64089,-42.90643 -13.1286,0 -28.82861,42.09416 -14.88775,0 0,-42.09416 -11.77442,0 0,96.77267"
         style="fill:#2c3546;fill-opacity:1;fill-rule:nonzero;stroke:none"
         id="path4283"
         inkscape:connector-curvature="0" /><path
         d="m 875.44373,302.50792 11.23369,0 0,-45.07053 c 3.24792,6.6316 11.09909,12.45093 22.73775,12.45093 14.61737,0 24.9042,-7.98461 24.9042,-28.55708 l 0,-43.44716 -11.23369,0 0,44.25943 c 0,12.4521 -5.27977,18.00106 -16.64806,18.00106 -10.42142,0 -19.7602,-6.63277 -19.7602,-19.35406 l 0,-42.90643 -11.23369,0 0,104.62384"
         style="fill:#2c3546;fill-opacity:1;fill-rule:nonzero;stroke:none"
         id="path4285"
         inkscape:connector-curvature="0" /><path
         d="m 977.04672,300.34265 10.14988,0 14.4875,-19.49101 -8.26086,0 -11.50523,10.15106 -11.50406,-10.15106 -7.98578,0 14.61855,19.49101 z m 28.14738,-67.67369 0,0.94687 c 0,16.37769 -9.06485,26.93488 -23.14032,26.93488 -14.21124,0 -23.14389,-10.55719 -23.14389,-26.79911 l 0,-1.08264 c 0,-16.10615 8.79805,-26.66334 23.14389,-26.66334 14.21124,0 23.14032,10.69179 23.14032,26.66334 z m -57.92521,0 0,1.08264 c 0,21.24898 14.75315,36.13672 34.78489,36.13672 20.02942,0 34.78022,-14.75198 34.78022,-36.00095 l 0,-1.08381 c 0,-21.38357 -14.7508,-36.13672 -34.91599,-36.13672 -20.16517,0 -34.64912,15.29388 -34.64912,36.00212"
         style="fill:#2c3546;fill-opacity:1;fill-rule:nonzero;stroke:none"
         id="path4287"
         inkscape:connector-curvature="0" /><path
         d="m 1030.604,268.67108 11.2301,0 0,-11.23369 c 3.2491,6.6316 11.1003,12.45093 22.7401,12.45093 14.6198,0 24.8996,-7.98461 24.8996,-28.55708 l 0,-43.44716 -11.2302,0 0,44.25943 c 0,12.4521 -5.2798,18.00106 -16.6493,18.00106 -10.4202,0 -19.7602,-6.63277 -19.7602,-19.35406 l 0,-42.90643 -11.2301,0 0,70.787"
         style="fill:#2c3546;fill-opacity:1;fill-rule:nonzero;stroke:none"
         id="path4289"
         inkscape:connector-curvature="0" /><path
         d="m 1156.1444,240.11283 c -1.0803,14.61738 -8.66,20.43788 -20.2998,20.43788 -11.5005,0 -19.2206,-7.85118 -21.1108,-20.43788 l 41.4106,0 z m -53.4601,-7.57847 0,1.08147 c 0,21.38475 13.6693,36.27249 33.1603,36.27249 16.3801,0 31.8097,-9.87952 31.8097,-35.18985 l 0,-3.65288 -53.3302,0 c 0.5396,-16.10615 8.2597,-25.03997 22.7401,-25.03997 10.9598,0 17.3199,4.06019 18.8098,12.31633 l 11.2396,0 c -2.4392,-14.21124 -14.2195,-21.65511 -30.1898,-21.65511 -20.0294,0 -34.2395,14.07547 -34.2395,35.86752"
         style="fill:#2c3546;fill-opacity:1;fill-rule:nonzero;stroke:none"
         id="path4291"
         inkscape:connector-curvature="0" /><path
         d="m 1181.141,229.82601 28.9602,0 0,10.55847 -28.9602,0 0,-10.55847 z"
         style="fill:#2c3546;fill-opacity:1;fill-rule:nonzero;stroke:none"
         id="path4293"
         inkscape:connector-curvature="0" /><path
         d="m 1242.5998,235.10461 33.5676,0 -16.7838,49.80722 -16.7838,-49.80722 z m 9.6091,59.55214 15.4379,0 32.7483,-96.77267 -11.6456,0 -9.4687,27.88175 -39.9231,0 -9.3399,-27.88175 -11.1073,0 33.2984,96.77267"
         style="fill:#2c3546;fill-opacity:1;fill-rule:nonzero;stroke:none"
         id="path4295"
         inkscape:connector-curvature="0" /><path
         d="m 1312.31,197.88408 11.3699,0 0,104.62279 -11.3699,0 0,-104.62279 z"
         style="fill:#2c3546;fill-opacity:1;fill-rule:nonzero;stroke:none"
         id="path4297"
         inkscape:connector-curvature="0" /><path
         d="m 1397.4698,232.66896 0,1.08264 c 0,17.86529 -9.8901,26.79911 -21.7932,26.79911 -13.1322,0 -23.1392,-8.66228 -23.1392,-26.79911 l 0,-1.08264 c 0,-18.13566 9.4686,-26.66334 23.2679,-26.66334 14.0802,0 21.6645,9.47455 21.6645,26.66334 z m -55.7705,36.00212 11.236,0 0,-11.91136 c 4.0614,6.90313 13.6705,13.1286 23.9585,13.1286 18.5394,0 32.21,-13.53474 32.21,-35.59481 l 0,-1.08381 c 0,-21.65511 -12.7225,-36.54286 -32.21,-36.54286 -11.634,0 -19.8971,5.8205 -23.9585,12.85824 l 0,-36.27366 -11.236,0 0,95.41966"
         style="fill:#2c3546;fill-opacity:1;fill-rule:nonzero;stroke:none"
         id="path4299"
         inkscape:connector-curvature="0" /><path
         d="m 1471.9904,240.11283 c -1.0768,14.61738 -8.6494,20.43788 -20.2951,20.43788 -11.5052,0 -19.2183,-7.85118 -21.1143,-20.43788 l 41.4094,0 z m -53.4531,-7.57847 0,1.08147 c 0,21.38475 13.6705,36.27249 33.158,36.27249 16.3742,0 31.812,-9.87952 31.812,-35.18985 l 0,-3.65288 -53.336,0 c 0.5384,-16.10615 8.2632,-25.03997 22.7413,-25.03997 10.9668,0 17.3222,4.06019 18.8086,12.31633 l 11.2478,0 c -2.4462,-14.21124 -14.2089,-21.65511 -30.1852,-21.65511 -20.0376,0 -34.2465,14.07547 -34.2465,35.86752"
         style="fill:#2c3546;fill-opacity:1;fill-rule:nonzero;stroke:none"
         id="path4301"
         inkscape:connector-curvature="0" /><path
         d="m 1492.1919,219.67613 10.9668,0 c 0.8076,-8.39191 5.2786,-13.67051 16.6434,-13.67051 10.6976,0 15.4378,3.65406 15.4378,11.23487 0,7.4427 -5.5595,9.87951 -16.5263,11.90902 -18.399,3.38485 -24.6257,8.52768 -24.6257,20.84401 0,13.1286 12.863,19.8948 23.9585,19.8948 12.7225,0 23.6776,-5.14166 25.5737,-20.43671 l -10.8264,0 c -1.6151,7.71424 -5.9574,11.0991 -14.8877,11.0991 -8.1227,0 -13.4013,-4.06136 -13.4013,-10.15223 0,-6.36006 3.5229,-8.93264 16.5146,-11.23369 14.6186,-2.70601 24.9065,-5.95509 24.9065,-20.97743 0,-12.85824 -8.8015,-21.52052 -25.995,-21.52052 -16.9125,0 -27.0601,8.52651 -27.7389,23.00929"
         style="fill:#2c3546;fill-opacity:1;fill-rule:nonzero;stroke:none"
         id="path4303"
         inkscape:connector-curvature="0" /><path
         d="m 1548.2784,575.6067 c 0,-119.6099 -96.9576,-216.57217 -216.5745,-216.57217 -119.6052,0 -216.5699,96.96227 -216.5699,216.57217 0,119.60991 96.9647,216.57335 216.5699,216.57335 119.6169,0 216.5745,-96.96344 216.5745,-216.57335"
         style="fill:#4495d7;fill-opacity:1;fill-rule:nonzero;stroke:none"
         id="path4305"
         inkscape:connector-curvature="0" /><path
         d="m 1365.1545,700.90251 -20.7048,0 -48.8533,-83.88869 20.6462,-12.0284 38.5303,66.15448 78.3596,-134.34315 20.6813,11.98042 -88.6593,152.12534"
         style="fill:#ffffff;fill-opacity:1;fill-rule:nonzero;stroke:none"
         id="path4307"
         inkscape:connector-curvature="0" /><path
         d="m 1247.9486,488.26528 218.4308,0 0,23.89892 -218.4308,0 0,-23.89892 z"
         style="fill:#ffffff;fill-opacity:1;fill-rule:nonzero;stroke:none"
         id="path4309"
         inkscape:connector-curvature="0" /><path
         d="m 1361.9007,599.13215 c -12.3011,-14.63611 -30.7586,-23.93977 -51.3814,-23.93977 -19.23,0 -36.5874,8.10281 -48.8299,21.08043 l -21.29,0 0,0 -0.8661,-1.50516 -55.1736,-94.44002 20.6228,-12.06235 40.0752,68.60066 -0.1054,0.0176 8.5207,14.61971 c 15.6017,-12.59489 35.4403,-20.14644 57.0463,-20.14644 27.6336,0 52.388,12.32218 69.0665,31.76754 l -17.6851,16.00784"
         style="fill:#ffffff;fill-opacity:1;fill-rule:nonzero;stroke:none"
         id="path4311"
         inkscape:connector-curvature="0" /></g></g></svg>